<?xml version="1.0" standalone="no"?><!DOCTYPE svg PUBLIC "-//W3C//DTD SVG 1.1//EN" "http://www.w3.org/Graphics/SVG/1.1/DTD/svg11.dtd"><svg t="1745476449058" class="icon" viewBox="0 0 1024 1024" version="1.1" xmlns="http://www.w3.org/2000/svg" p-id="14985" xmlns:xlink="http://www.w3.org/1999/xlink" width="200" height="200"><path d="M662.186667 131.413333c-58.026667 0-117.76 23.893333-150.186667 64.853334-34.133333-40.96-93.866667-64.853333-150.186667-64.853334H34.133333v750.933334h296.96c112.64-1.706667 129.706667 15.36 139.946667 23.893333 6.826667 6.826667 11.946667 15.36 13.653333 23.893333h54.613334c1.706667-11.946667 8.533333-20.48 17.066666-29.013333 13.653333-8.533333 35.84-20.48 163.84-18.773333H989.866667v-750.933334H662.186667zM484.693333 764.586667v81.92c-35.84-13.653333-107.52-18.773333-155.306666-18.773334H87.04V184.32h273.066667c58.026667 0 122.88 34.133333 122.88 83.626667v496.64z m452.266667 61.44H733.866667c-100.693333-1.706667-157.013333 0-192.853334 18.773333V267.946667c0-49.493333 64.853333-83.626667 122.88-83.626667h273.066667v641.706667z" fill="#000000" p-id="14986"></path><path d="M819.2 413.013333l-81.92-64.853333-81.92 64.853333V95.573333H819.2zM484.693333 257.706667c0-51.2-66.56-87.04-126.293333-87.04H76.8v672.426666H324.266667c49.493333 0 122.88 6.826667 160.426666 20.48V257.706667z m-71.68 438.613333H148.48v-56.32h266.24v56.32z m0-160.426667H148.48v-56.32h266.24v56.32z m0-160.426666H148.48v-56.32h266.24V375.466667z" fill="#000000" p-id="14987"></path></svg>