<?xml version="1.0" standalone="no"?><!DOCTYPE svg PUBLIC "-//W3C//DTD SVG 1.1//EN" "http://www.w3.org/Graphics/SVG/1.1/DTD/svg11.dtd"><svg t="1745474404550" class="icon" viewBox="0 0 1073 1024" version="1.1" xmlns="http://www.w3.org/2000/svg" p-id="2689" xmlns:xlink="http://www.w3.org/1999/xlink" width="209.5703125" height="200"><path d="M464.63744 942.070361H69.206448a54.603695 54.603695 0 0 1-57.133875-51.422897v-11.446052a58.627886 58.627886 0 0 1 57.133875-51.904836H102.412048v-3.614543a58.98934 58.98934 0 0 1 57.615814-57.230262h210.559172a59.326697 59.326697 0 0 1 41.109401 18.867914 57.302553 57.302553 0 0 1 14.988304 41.976891h38.073185a58.290528 58.290528 0 0 1 57.519426 57.447135 56.676032 56.676032 0 0 1-16.867867 40.193717 58.892952 58.892952 0 0 1-40.772043 17.132933z m-219.282269-321.164184a37.663537 37.663537 0 0 1-29.157312-13.012354l-173.907707-193.859984-0.867491-0.963878a42.892576 42.892576 0 0 1 7.060408-58.844758l52.651841-47.519191 1.060266-0.843393a47.928839 47.928839 0 0 1 29.952512-10.747241 36.868337 36.868337 0 0 1 26.506648 10.36169l202.052947-179.329521-0.674714-1.060266a42.049182 42.049182 0 0 1 10.482174-53.784398L423.166584 23.783692l1.060266-0.86749a47.181833 47.181833 0 0 1 29.639252-10.843629 37.808119 37.808119 0 0 1 29.205506 12.940064l171.425721 192.77562 0.86749 0.939782a43.061254 43.061254 0 0 1-6.964019 58.772467l-52.651841 47.495093-0.867491 0.963879a39.85636 39.85636 0 0 1-27.952465 11.325567 39.832263 39.832263 0 0 1-26.337969-9.87975l-46.555312 41.494952 96.62878 108.17122a505.240805 505.240805 0 0 0-92.797365 116.532863L383.864455 466.517002l-45.22998 40.241911 0.674714 1.253041a43.374515 43.374515 0 0 1-10.506271 53.712108l-52.651841 47.495093-1.060266 0.963878a46.989058 46.989058 0 0 1-29.711543 10.723144z" p-id="2690"></path><path d="M760.548017 445.673138a265.066478 265.066478 0 0 0-187.426097 452.492576A265.066478 265.066478 0 1 0 947.974115 523.313519a263.331498 263.331498 0 0 0-187.426098-77.640381m0-48.193905a313.260384 313.260384 0 1 1-313.260383 313.260383 313.260384 313.260384 0 0 1 313.260383-313.260383z" p-id="2691"></path><path d="M790.500529 685.48601c-13.373809 10.12072-27.398235 19.904083-41.760018 28.699471h120.002824v23.807789h-132.364561c-3.927803 9.759266-8.168867 19.277562-12.409931 28.675373h132.051301s-0.987975 8.482127-1.951854 13.060549c-6.506177 43.687775-14.000329 64.531639-24.771667 74.339098a47.856548 47.856548 0 0 1-31.326038 9.470103c-11.421956 0.650618-33.253795 0.31326-56.748324-0.987975a69.254642 69.254642 0 0 0-10.096623-28.048853c22.819814 2.28921 48.916814 2.602471 58.338723 2.602471a28.07295 28.07295 0 0 0 15.976279-2.939828c6.192917-4.530227 11.421956-17.590775 15.97628-42.6998h-141.762372a636.882457 636.882457 0 0 0 25.084927-51.832545 704.474409 704.474409 0 0 1-83.134486 38.796093 171.811272 171.811272 0 0 0-13.060548-27.060878 657.244382 657.244382 0 0 0 135.328485-65.881068h-125.304153V659.774562h108.267608v-32.26582h-80.218755v-25.109024h80.218755v-36.145429h29.976609v36.145429h68.146182v19.277562a412.298859 412.298859 0 0 0 37.832215-41.422662l23.470432 14.024427a500.421414 500.421414 0 0 1-63.567761 65.543711h77.25483v25.735545z m-9.783362-25.735545a418.467679 418.467679 0 0 0 38.145476-32.26582h-61.953265v32.289917z" p-id="2692"></path></svg>