<?xml version="1.0" standalone="no"?><!DOCTYPE svg PUBLIC "-//W3C//DTD SVG 1.1//EN" "http://www.w3.org/Graphics/SVG/1.1/DTD/svg11.dtd"><svg t="1745474499333" class="icon" viewBox="0 0 1285 1024" version="1.1" xmlns="http://www.w3.org/2000/svg" p-id="8368" xmlns:xlink="http://www.w3.org/1999/xlink" width="250.9765625" height="200"><path d="M832.102274 871.003853c4.015647 3.814865 7.027382 8.232076 9.235987 13.251635 2.007823 4.617994 3.011735 9.838335 3.212518 15.058676 0 5.220341-0.803129 10.2399-2.810953 15.058675-1.807041 5.019559-4.818776 9.637553-8.633641 13.6532-18.271193 18.672758-38.55021 35.337693-60.83705 49.994804-17.066499 11.043029-35.739257 16.865717-56.419839 17.267282l-664.388781 15.46024h-0.803129c-10.842247 0-20.680582-3.011735-29.314223-9.035205-8.834423-6.224253-15.058676-14.255547-18.471975-24.294664-3.614082-10.039117-3.814865-20.078235-0.602347-30.117352s9.035206-18.070411 17.668846-24.495446c27.306399-20.479799 49.593239-45.577592 66.860521-75.092597 15.661023-26.904834 27.306399-58.22688 35.13691-94.16692 6.8266-31.723611 10.842247-68.265997 12.247723-110.028725 1.003912-31.924393 0.401565-71.478515-1.807041-118.662366-0.803129-3.011735-1.405476-6.02347-1.606259-9.035206l-0.401564-5.019559c-2.007823-30.318134-3.4133-53.809669-4.015647-70.27382-1.204694-26.50327-1.405476-50.597151-0.602347-71.88008 2.208606-69.671474 16.26337-131.914001 41.96351-186.727581 28.912658-62.041745 71.679297-111.634984 128.299919-148.9805 16.865717-11.043029 35.739257-16.865717 56.620621-17.267282L1016.822031 0.010039c10.842247-0.200782 20.881364 2.61017 29.715787 8.633641 9.235988 6.224253 15.460241 14.456329 19.074323 24.696228 3.614082 10.039117 3.814865 20.078235 0.602347 30.117352s-9.035206 18.070411-17.468064 24.495446c-19.074323 14.255547-35.538475 30.518916-49.392457 48.589328-14.054764 18.471976-25.70014 39.152557-35.13691 62.242527-18.672758 46.380722-28.711875 105.209949-30.318134 176.889246-0.200782 5.421123-1.405476 10.641464-3.4133 15.661023-2.208606 4.818776-5.220341 9.035206-8.834424 12.649288-3.814865 3.614082-8.031294 6.425035-13.050852 8.432858-5.019559 2.007823-10.2399 2.810953-15.861805 2.810953-5.421123-0.200782-10.440682-1.405476-15.460241-3.614082-4.617994-2.007823-8.834423-5.019559-12.448505-8.834423s-6.425035-8.031294-8.432859-12.85007c-2.007823-5.019559-3.011735-10.2399-2.810953-15.861806 0.803129-37.747081 3.614082-72.080862 8.432859-102.80056 5.019559-30.920481 12.046941-59.632357 21.483711-86.336409 13.853982-38.951775 32.727522-73.084774 56.219057-102.599778l-585.280537 13.653199c-5.421123 0.200782-10.2399 1.606259-14.255546 4.216429-47.786198 31.121264-82.923109 74.088685-105.410732 128.701484-17.468064 41.96351-27.105617 89.348144-28.912657 142.354683-0.602347 18.471976-0.401565 39.554122 0.602347 63.447221 0.602347 14.857894 1.807041 36.140822 3.614082 64.25035v0.200782l0.200782 1.606259c1.003912 3.212518 1.606259 6.8266 1.807041 10.641465 2.61017 52.20341 3.4133 94.16692 2.610171 126.091312-1.003912 47.384633-5.220341 89.749708-12.85007 126.69366-7.228164 35.13691-17.668846 67.262086-31.121264 96.174744 3.614082-2.007823 7.830511-4.417212 12.85007-7.228165 13.452417-7.428947 28.912658-15.661023 45.979157-24.294664 46.581504-23.491534 95.371614-45.37681 145.968765-65.856609 66.659739-27.105617 131.311654-48.990892 193.754964-65.655827 76.498074-20.680582 147.374241-32.928305 212.427721-36.943951l0.602347 9.637552c0.200782-29.11344 5.822688-57.022186 17.267282-83.726238a219.856668 219.856668 0 0 1 47.585415-70.273821c20.279017-20.279017 43.770551-36.140822 70.273821-47.183851 27.306399-11.645376 56.018274-17.468064 85.934844-17.468064 29.715787 0 58.427662 5.822688 85.734061 17.468064 26.50327 11.243811 49.794022 26.904834 70.273821 47.384634 20.279017 20.279017 36.140822 43.770551 47.384634 70.273821 11.645376 27.306399 17.468064 56.018274 17.468064 85.934843 0 24.294664-4.015647 47.986981-11.846159 70.876168-6.224253 18.070411-14.456329 34.936128-24.89701 50.797934l77.301203 76.899638c3.814865 3.814865 6.625817 8.232076 8.834423 13.251635a42.626092 42.626092 0 0 1 0 30.318134c-2.007823 5.019559-5.019559 9.235988-8.834423 13.251635a40.517877 40.517877 0 0 1-28.511093 11.846158c-10.842247 0-20.279017-4.015647-28.511093-11.846158l-75.895727-75.895727c-16.464152 11.846158-34.132999 21.082146-53.207321 28.109528-24.294664 8.834423-49.392457 13.251635-75.29338 13.251635-30.117352 0-58.628445-5.822688-86.135626-17.468064a216.041804 216.041804 0 0 1-70.273821-47.384633c-20.279017-20.279017-36.140822-43.770551-47.384633-70.273821a212.026157 212.026157 0 0 1-17.0665-77.702768c-63.648003 3.814865-133.118695 15.861805-208.010509 36.140822-61.64018 16.664935-125.488966 38.349428-191.546358 64.852698-49.994804 20.279017-98.182567 42.164293-144.362506 65.455044-16.865717 8.432859-31.924393 16.464152-45.37681 23.692317-10.842247 6.224253-18.271193 10.440682-21.885276 13.050853l-7.027382-10.2399c-10.440682 19.877452-22.28684 38.349428-35.739257 55.215145l585.481318-13.653199c5.421123-0.200782 10.2399-1.405476 14.255547-4.015647 18.271193-12.247723 33.932216-25.298576 47.183851-39.152558 3.814865-4.015647 8.232076-7.027382 13.251635-9.035205 4.617994-2.007823 9.637553-3.011735 14.857893-3.011735 5.220341-0.200782 10.2399 0.803129 15.259459 2.61017 5.019559 2.007823 9.43677 4.818776 13.251635 8.633641z m-483.483888-345.144852c2.208606-1.807041 4.015647-3.814865 5.421123-6.425035 1.606259-3.212518 2.61017-6.8266 2.610171-11.043029 0-3.4133-0.602347-7.629729-1.807041-12.649287-0.401565-2.007823-0.602347-3.4133-0.80313-4.21643v-0.401564c0.200782-6.02347 3.4133-18.271193 9.838335-36.542387 7.428947-21.483711 18.070411-47.384633 31.924393-77.90355l13.452417-28.711876c4.015647-8.432859 7.027382-15.861805 9.035206-22.086058 2.810953-7.428947 4.216429-14.456329 4.216429-21.282928 0-12.247723-4.417212-24.495446-12.85007-36.743169l-7.629729-11.043029-12.046941 6.425035c-8.633641 5.019559-15.861805 9.235988-21.282928 12.85007-5.822688 3.814865-11.846158 8.031294-18.271194 13.050852-2.810953 2.007823-6.625817 5.220341-11.846158 9.235988l-3.4133 2.610171-0.200782 0.200782-0.401565 0.200782c-1.405476 1.204694-3.614082 3.212518-6.425035 5.621906-3.212518 2.61017-5.421123 4.617994-7.027382 5.822688l-5.019559 4.617994v48.990892l19.475888-12.247723c-5.621906 10.842247-10.641464 20.479799-14.456329 28.912658-6.625817 14.255547-12.046941 27.306399-16.062588 39.152557-9.235988 26.704052-13.853982 46.782286-13.853982 60.234704 0 10.2399 2.61017 18.672758 7.830512 25.298575 4.818776 6.224253 12.85007 12.046941 24.294664 17.468064 5.822688 3.011735 11.444594 4.216429 16.664934 3.814865 3.212518-0.401565 6.02347-1.405476 8.633641-3.212518z m236.722385-218.049627v0.200783c3.4133 7.629729 5.220341 18.271193 5.220341 31.924393 0 0.803129-0.200782 1.405476-0.200782 2.208605 5.019559-6.425035 10.2399-12.448505 15.861805-18.471975 16.664935-17.468064 34.333781-31.121264 53.207322-41.160381 20.279017-10.440682 38.349428-14.054764 54.211233-10.641464 7.228164 1.606259 13.050852 4.818776 17.267281 9.838335 2.61017 3.011735 4.617994 6.425035 6.023471 10.239899 5.421123 4.015647 9.637553 9.235988 12.85007 15.861805 3.614082 7.629729 5.421123 18.471976 5.421123 32.125176 0 18.672758-3.814865 38.951775-11.243811 60.636268a248.367761 248.367761 0 0 1-30.920481 60.234704c-13.452417 18.672758-28.912658 34.333781-46.380722 46.782286-20.680582 14.657111-38.148646 21.885276-52.805757 21.885276-12.247723 0-23.491534-3.614082-33.731434-10.641465-10.2399-7.027382-18.070411-16.865717-23.893099-29.314222-4.015647-8.834423-6.625817-18.471976-7.629729-29.11344-0.200782 0.200782-0.200782 0.200782-0.200782 0.401565-13.452417 18.672758-28.912658 34.333781-46.380722 46.782286-20.680582 14.657111-38.148646 21.885276-52.805757 21.885276-12.247723 0-23.491534-3.614082-33.731434-10.641465-10.2399-7.027382-18.070411-16.865717-23.893099-29.314222-5.621906-12.046941-8.232076-25.900923-8.232076-41.361163 0-20.680582 5.421123-42.365075 16.664934-65.05348 11.043029-22.086058 24.897011-41.762728 41.561946-59.431574 16.664935-17.468064 34.333781-31.121264 53.207321-41.160381 20.279017-10.440682 38.349428-14.054764 54.211234-10.641464 7.228164 1.606259 13.050852 4.818776 17.267281 9.838335 2.61017 3.011735 4.617994 6.425035 6.023471 10.239899 5.421123 3.814865 9.637553 9.235988 12.85007 15.661023l0.200782 0.200782z m-145.5672 160.625877c1.204694-0.200782 2.810953-0.602347 5.019558-1.405477 3.4133-1.204694 7.428947-3.212518 12.247724-6.02347 10.440682-6.224253 21.082146-14.255547 32.125175-24.294664 11.043029-10.2399 20.479799-21.282929 28.109528-33.129087l0.401565-0.401565c8.031294-12.046941 14.456329-24.093881 18.672758-35.940039 4.015647-11.444594 6.224253-20.881364 6.224253-28.310311 0-1.204694-0.200782-2.007823-0.401565-2.810953-0.401565 0.200782-0.803129 0.401565-1.405476 0.803129-5.421123 4.216429-10.039117 8.232076-13.853982 11.846159l-7.629729-5.621906c-2.409388 1.405476-4.818776 3.011735-7.428947 4.617994-4.216429 2.810953-9.838335 7.228164-16.865717 13.251635-7.027382 6.625817-13.853982 14.255547-20.680582 22.889187-12.046941 15.460241-21.082146 30.117352-26.704052 43.770552-5.822688 13.251635-8.633641 24.294664-8.633641 32.928304 0 2.61017 0.200782 5.019559 0.602348 6.625818 0 0.602347 0.200782 0.803129 0.200782 1.204694z m242.143508-64.852698l0.200783-0.200782 0.200782-0.200783c8.031294-12.046941 14.456329-24.093881 18.672758-35.940039 4.015647-11.444594 6.224253-20.881364 6.224253-28.310311 0-1.204694-0.200782-2.007823-0.401565-2.810953-0.401565 0.200782-0.803129 0.401565-1.405476 0.803129-5.421123 4.216429-10.039117 8.232076-13.853982 11.846159l-7.428947-5.621906c-2.61017 1.606259-5.220341 3.011735-7.629729 4.617994-4.216429 2.810953-9.838335 7.228164-16.865717 13.251635-7.027382 6.625817-13.853982 14.255547-20.680582 22.889187-12.046941 15.460241-21.082146 30.117352-26.704052 43.770552l-0.200782 0.200782c-5.621906 13.251635-8.432859 24.093881-8.432858 32.727522 0 2.61017 0.200782 5.019559 0.602347 6.625818 0 0.602347 0.200782 0.803129 0.200782 1.204694 1.204694-0.200782 2.810953-0.602347 5.019559-1.405477 3.4133-1.204694 7.428947-3.212518 12.247723-6.02347 10.440682-6.224253 21.082146-14.255547 32.125175-24.294664 11.043029-10.2399 20.479799-21.282929 28.109528-33.129087z m462.000177 268.646778c0-19.074323-3.814865-37.144734-11.243812-54.612798a137.535907 137.535907 0 0 0-30.117351-44.774463 144.141646 144.141646 0 0 0-44.774463-30.117352c-17.267282-7.428947-35.538475-11.043029-54.412016-11.043029a138.539818 138.539818 0 0 0-54.81358 11.043029c-16.865717 7.228164-31.723611 17.267282-44.774463 30.318135-13.050852 12.85007-23.08997 27.908746-30.117352 44.774463-7.428947 17.267282-11.043029 35.538475-11.043029 54.612797 0 19.074323 3.614082 37.144734 11.043029 54.612798 7.027382 16.865717 17.066499 31.723611 30.117352 44.774463 13.050852 12.85007 27.908746 22.889187 44.774463 30.117352a138.539818 138.539818 0 0 0 54.81358 11.043029c17.668846 0 34.735346-3.212518 51.40028-9.838335 14.657111-5.822688 28.109528-13.853982 40.156469-24.294664 2.007823-4.417212 4.818776-8.432859 8.432859-12.247723 3.212518-3.212518 6.625817-5.621906 10.440682-7.428946 9.035206-11.645376 16.26337-24.495446 21.483711-38.550211 5.621906-15.661023 8.633641-31.723611 8.633641-48.388545z m-793.692611-2.409388a10.681621 10.681621 0 0 1-3.212518-11.846158c0.803129-2.007823 2.007823-3.814865 4.015647-5.421124 2.409388-2.007823 7.629729-4.617994 15.259458-7.428947 12.448505-4.617994 30.719699-10.2399 54.813581-16.664934 23.290752-6.224253 44.573681-11.444594 64.25035-15.661023 22.28684-4.818776 36.140822-6.625817 41.561946-5.421123l22.487622 4.417211-18.672758 13.452417c-3.212518 2.409388-7.629729 5.019559-13.251635 8.432859-11.043029 6.224253-22.889187 12.046941-35.337692 17.267281-40.357251 16.464152-80.915285 23.893099-122.075666 21.885276-4.216429-0.200782-7.428947-1.204694-9.838335-3.011735z" fill="#2c2c2c" p-id="8369"></path></svg>